<svg xmlns="http://www.w3.org/2000/svg" width="167" height="40" viewBox="0 0 167 40">
    <g fill="none">
        <path fill="#2F5CBD" d="M5.894 16.663c-1.208 0-2.187.983-2.187 2.195 0 1.213.98 2.195 2.187 2.195h6.885c-.267-1.45-.267-2.939 0-4.39H5.894z"/>
        <path fill="#2F5CBD" d="M24.61.198C18.195.196 12.232 3.515 8.838 8.979H4.497c-1.208 0-2.188.983-2.188 2.195 0 1.213.98 2.196 2.188 2.196h9.4c.893-1.751 2.197-3.258 3.8-4.391 4.107-2.896 9.575-2.928 13.716-.08 4.142 2.848 6.085 7.977 4.876 12.866-1.209 4.89-5.316 8.513-10.304 9.087-4.987.575-9.806-2.019-12.088-6.506H2.309c-1.208 0-2.187.983-2.187 2.195 0 1.213.98 2.196 2.187 2.196h6.529c4.735 7.613 14.2 10.765 22.531 7.503 8.332-3.262 13.169-12.014 11.515-20.834S33.554.198 24.61.198"/>
        <path fill="#2F5CBD" d="M30.08 18.858c0-3.032-2.45-5.49-5.47-5.49-3.021 0-5.47 2.458-5.47 5.49 0 3.031 2.449 5.489 5.47 5.489 3.02 0 5.47-2.458 5.47-5.49"/>
        <path fill="#FB4414" d="M48.37 31.625h2.315c.27.001.542.02.81.059.256.033.503.11.732.229.214.112.395.277.527.48.144.246.214.53.2.817.013.318-.092.63-.293.876-.205.237-.474.41-.775.496v.018c.193.026.381.084.556.172.162.08.307.191.43.325.12.134.215.291.276.462.065.18.097.371.096.563.01.29-.062.575-.21.823-.138.217-.324.4-.544.532-.231.139-.485.237-.75.29-.272.059-.55.088-.828.088H48.37v-6.23zm1.367 2.49h.99c.106 0 .21-.011.312-.035.098-.021.191-.06.276-.114.082-.053.15-.126.198-.21.051-.098.077-.208.073-.318.005-.113-.024-.225-.083-.322-.053-.083-.127-.151-.214-.198-.094-.049-.195-.083-.299-.101-.107-.02-.215-.03-.324-.03h-.93v1.329zm0 2.579h1.227c.108 0 .215-.013.32-.036.105-.021.205-.063.294-.123.088-.059.161-.137.214-.229.059-.104.088-.223.084-.342.006-.128-.033-.254-.11-.357-.073-.09-.168-.162-.276-.207-.115-.048-.236-.08-.36-.097-.119-.017-.239-.025-.359-.026h-1.034v1.417zM57.918 37.116c-.211.27-.485.485-.798.624-.313.145-.654.22-1 .22-.315.003-.628-.05-.924-.158-.28-.099-.536-.253-.755-.452-.214-.199-.386-.44-.504-.709-.245-.59-.245-1.256 0-1.847.118-.27.29-.51.504-.71.22-.2.476-.353.755-.452.296-.107.61-.16.924-.159.284-.003.566.05.828.159.243.1.459.255.632.452.179.208.315.449.399.71.097.298.145.61.14.923v.414h-3.051c.042.234.163.446.342.602.182.152.412.232.648.225.194.006.384-.045.549-.146.152-.1.284-.226.39-.374l.92.678zm-1.114-1.883c.01-.213-.07-.42-.219-.572-.154-.159-.367-.245-.588-.237-.131-.003-.262.021-.385.07-.105.043-.201.104-.285.18-.078.072-.14.159-.184.255-.044.096-.07.2-.075.304h1.736zM61.68 31.625h2.051c.477-.002.953.054 1.416.168.422.1.82.283 1.17.54.339.257.61.59.794.973.208.455.308.952.294 1.452.01.46-.088.917-.285 1.333-.182.375-.444.705-.767.968-.331.266-.709.467-1.114.594-.428.136-.874.205-1.324.204H61.68v-6.232zm1.367 4.964h.71c.297.002.593-.03.882-.097.255-.057.495-.166.705-.321.203-.155.364-.358.469-.59.122-.282.18-.587.171-.894.007-.275-.052-.548-.171-.796-.109-.22-.266-.41-.46-.559-.204-.152-.435-.264-.68-.33-.267-.074-.543-.11-.82-.11h-.806v3.697zM68.08 32.234c0-.366.257-.682.614-.753.358-.072.716.12.856.458s.022.727-.281.93c-.303.204-.707.164-.965-.094-.146-.142-.227-.338-.224-.541m.106 1.346h1.315v4.276h-1.315V33.58zM74.919 37.495c0 .81-.203 1.424-.61 1.843-.405.418-1.024.628-1.854.63-.378 0-.754-.043-1.122-.128-.372-.087-.72-.257-1.017-.496l.727-1.091c.196.163.413.3.645.404.234.101.486.152.74.15.325.027.647-.08.891-.295.192-.202.295-.474.285-.753v-.416h-.018c-.141.198-.338.35-.565.436-.202.08-.418.124-.636.128-.294.004-.586-.051-.86-.163-.25-.104-.476-.26-.662-.458-.187-.202-.332-.44-.424-.7-.194-.555-.2-1.159-.014-1.717.086-.257.216-.497.386-.708.167-.206.375-.375.61-.497.251-.129.53-.194.814-.189.323-.004.643.072.93.22.114.059.22.131.316.216.079.07.15.148.21.233h.018v-.563h1.21v3.914zm-3.314-1.804c-.002.276.107.54.302.734.096.098.21.177.334.234.13.06.272.09.416.088.142 0 .283-.029.412-.088.126-.056.24-.136.338-.234.095-.095.171-.209.223-.334.105-.256.105-.544 0-.8-.052-.126-.128-.24-.223-.335-.098-.098-.212-.177-.338-.234-.13-.059-.27-.088-.412-.088-.144-.001-.286.028-.416.088-.124.058-.237.137-.334.234-.194.194-.303.459-.302.735M75.883 32.234c0-.366.257-.68.614-.752.358-.072.715.12.855.458.14.337.022.727-.281.93-.303.203-.707.163-.964-.095-.146-.142-.227-.338-.224-.541m.106 1.346h1.314v4.276h-1.315l.001-4.276zM81.153 34.635h-1.158v1.425c0 .108.006.215.018.322.009.088.036.173.08.25.043.073.109.13.188.163.107.043.222.063.337.058.092-.001.184-.009.276-.021.094-.008.185-.043.259-.102v1.1c-.147.053-.3.089-.456.106-.154.017-.31.026-.465.026-.207.002-.413-.022-.613-.07-.177-.042-.344-.118-.492-.225-.141-.104-.254-.241-.329-.4-.084-.188-.124-.392-.118-.598v-2.033h-.842V33.58h.842v-1.267h1.315v1.267h1.158v1.055zM81.732 32.234c-.001-.366.256-.682.614-.754.357-.072.716.12.856.458s.022.728-.281.932c-.303.203-.707.163-.965-.095-.146-.142-.227-.338-.224-.541m.105 1.346h1.314v4.276h-1.316l.002-4.276zM83.932 36.535L86.143 34.635 83.986 34.635 83.986 33.579 87.669 33.579 87.669 34.846 85.354 36.799 87.721 36.799 87.721 37.855 83.933 37.855zM92.516 37.116c-.21.27-.484.485-.797.624-.314.146-.655.22-1 .22-.315.003-.628-.05-.924-.158-.28-.099-.536-.253-.755-.452-.215-.2-.386-.44-.504-.709-.246-.59-.246-1.256 0-1.847.118-.27.29-.51.504-.71.22-.199.476-.353.755-.452.296-.107.609-.16.924-.159.284-.003.566.05.83.159.241.1.457.256.63.452.179.208.314.449.399.71.097.298.144.61.14.923v.414h-3.05c.042.234.162.447.342.602.181.152.412.232.649.225.192.006.383-.045.547-.146.152-.1.285-.226.39-.374l.92.678zm-1.112-1.883c.009-.213-.07-.42-.22-.572-.153-.159-.367-.245-.587-.237-.132-.003-.263.021-.386.07-.105.043-.202.104-.285.18-.078.072-.141.159-.185.255-.043.096-.068.2-.074.304h1.737zM97.987 37.855h-1.209v-.563h-.018c-.06.085-.13.164-.206.234-.09.083-.19.155-.298.215-.119.067-.245.12-.376.159-.139.041-.282.062-.426.061-.294.005-.587-.05-.859-.163-.25-.103-.476-.259-.662-.457-.187-.202-.331-.44-.425-.699-.101-.285-.152-.585-.148-.888-.001-.292.044-.582.135-.859.085-.263.216-.508.386-.725.165-.21.373-.383.609-.506.253-.13.533-.194.816-.19.261-.002.52.041.767.127.234.084.436.236.582.437h.018v-2.832h1.314v6.65zm-1.209-2.138c.013-.287-.086-.568-.276-.783-.441-.4-1.111-.4-1.552 0-.369.456-.369 1.11 0 1.566.441.4 1.11.4 1.552 0 .19-.215.289-.496.276-.783M99.374 36.429L100.636 36.429 99.847 38.911 98.725 38.911zM104.397 31.625h2.314c.272.001.543.02.812.059.256.033.503.11.732.229.214.112.395.277.526.48.145.246.215.53.202.817.012.318-.093.63-.294.876-.205.237-.475.41-.776.496v.018c.193.026.382.084.556.172.162.08.308.191.43.325.121.134.215.291.276.462.066.18.099.371.097.563.01.29-.062.575-.21.823-.138.217-.324.4-.544.532-.232.139-.485.237-.75.29-.273.059-.55.088-.829.088h-2.542v-6.23zm1.368 2.49h.989c.105 0 .21-.011.312-.035.098-.021.191-.06.276-.114.082-.053.15-.125.197-.21.052-.098.078-.208.075-.318.004-.113-.025-.225-.083-.322-.054-.083-.128-.151-.215-.198-.094-.048-.195-.083-.298-.101-.108-.02-.216-.03-.325-.03h-.929v1.329zm0 2.579h1.227c.108 0 .215-.012.32-.036.105-.021.205-.063.294-.123.088-.059.162-.137.215-.229.058-.104.087-.223.084-.342.005-.128-.033-.254-.11-.357-.073-.09-.169-.162-.277-.207-.115-.048-.236-.08-.36-.097-.118-.017-.238-.025-.358-.026h-1.035v1.417zM113.945 37.116c-.21.27-.484.485-.797.624-.313.146-.655.22-1 .22-.315.003-.628-.05-.925-.158-.278-.1-.535-.253-.754-.452-.214-.2-.386-.44-.504-.709-.246-.59-.246-1.256 0-1.847.118-.269.29-.51.504-.71.22-.199.476-.353.754-.452.297-.107.61-.16.925-.159.284-.003.566.05.83.159.241.1.457.255.63.452.179.208.314.449.399.71.097.298.145.61.14.923v.414h-3.05c.041.234.162.446.34.602.183.152.414.232.65.225.193.006.384-.045.548-.146.152-.1.284-.226.39-.374l.92.678zm-1.112-1.883c.01-.213-.07-.42-.22-.572-.153-.159-.366-.245-.587-.237-.132-.003-.263.021-.386.07-.105.043-.201.104-.285.18-.078.072-.14.159-.184.255-.044.096-.07.2-.075.304h1.737zM117.759 31.625L121.978 31.625 121.978 32.893 119.127 32.893 119.127 34.054 121.819 34.054 121.819 35.321 119.127 35.321 119.127 36.589 122.134 36.589 122.134 37.856 117.759 37.856zM123.064 33.579h1.263v.582h.017c.047-.09.105-.173.175-.247.08-.085.171-.159.272-.22.112-.067.233-.12.359-.158.142-.042.29-.063.438-.062.276-.005.549.059.794.185.235.128.42.333.522.581.124-.246.316-.45.552-.59.247-.123.521-.184.797-.174.25-.008.497.042.724.146.187.089.347.225.465.396.12.178.202.378.245.589.051.238.076.482.075.726v2.525h-1.315v-2.49c.005-.18-.04-.358-.128-.515-.098-.15-.272-.234-.45-.215-.132-.004-.262.022-.383.075-.098.047-.182.118-.245.207-.063.093-.108.197-.131.307-.027.122-.04.246-.04.37v2.261h-1.315v-2.26c0-.077-.003-.17-.008-.282-.006-.108-.027-.215-.062-.317-.034-.099-.093-.187-.17-.255-.1-.077-.223-.115-.347-.106-.143-.006-.286.025-.413.092-.101.058-.184.144-.24.247-.058.108-.095.226-.11.347-.018.134-.027.27-.026.405v2.13h-1.316v-4.28zM130.815 33.579h1.21v.563h.018c.06-.085.13-.164.206-.234.09-.083.19-.155.298-.215.118-.066.243-.12.372-.159.14-.042.285-.062.43-.061.295-.005.587.05.86.163.25.103.475.26.661.457.188.202.332.44.426.7.101.286.152.586.149.889.001.292-.045.582-.137.859-.085.263-.215.508-.385.726-.166.21-.374.382-.611.505-.252.13-.532.194-.815.19-.26.002-.52-.041-.767-.128-.233-.083-.436-.235-.582-.436h-.018v2.464h-1.315V33.58zm1.21 2.138c-.013.287.086.568.276.783.441.4 1.111.4 1.552 0 .37-.456.37-1.11 0-1.566-.44-.4-1.111-.4-1.552 0-.19.215-.289.496-.276.783M136.058 35.717c-.004-.318.059-.633.185-.924.117-.268.289-.51.504-.709.219-.199.475-.353.754-.452.599-.212 1.251-.212 1.85 0 .279.099.535.253.754.452.215.2.387.44.504.71.246.59.246 1.256 0 1.847-.118.269-.29.51-.504.709-.219.2-.475.353-.754.452-.599.212-1.251.212-1.85 0-.279-.099-.535-.253-.754-.452-.215-.2-.386-.44-.504-.709-.126-.291-.19-.606-.185-.924m1.316 0c-.013.287.086.568.276.783.441.4 1.111.4 1.552 0 .368-.457.368-1.11 0-1.566-.44-.4-1.11-.4-1.552 0-.19.215-.289.496-.276.783M141.056 33.579L142.459 33.579 143.327 36.262 143.344 36.262 144.071 33.579 145.509 33.579 146.298 36.262 146.316 36.262 147.114 33.579 148.446 33.579 146.93 37.855 145.632 37.855 144.746 35.013 144.728 35.013 143.939 37.855 142.615 37.855zM152.902 37.116c-.211.27-.485.485-.798.624-.313.146-.655.22-1 .22-.315.003-.628-.05-.924-.158-.28-.099-.536-.253-.755-.452-.214-.2-.386-.44-.503-.709-.247-.59-.247-1.256 0-1.847.117-.27.288-.51.503-.71.22-.199.476-.353.755-.452.296-.107.609-.16.924-.159.284-.003.566.05.83.159.241.1.457.256.63.452.179.208.315.449.399.71.097.298.145.61.14.923v.414h-3.05c.042.234.162.447.341.602.182.152.413.232.65.225.192.006.383-.045.547-.146.152-.1.284-.226.39-.374l.92.678zm-1.113-1.883c.01-.213-.07-.42-.22-.572-.153-.159-.366-.245-.587-.237-.132-.003-.263.021-.386.07-.105.043-.201.104-.285.18-.078.072-.14.159-.184.255-.044.096-.07.2-.074.304h1.736zM153.901 33.579h1.316v.686h.018c.116-.235.287-.439.5-.593.216-.14.47-.209.727-.199.075 0 .152.004.227.008.072.006.142.018.211.036v1.206c-.09-.029-.183-.05-.276-.066-.094-.015-.19-.022-.285-.022-.204-.009-.408.027-.597.105-.138.064-.255.167-.337.295-.083.138-.135.293-.153.453-.025.193-.036.387-.035.581v1.786H153.9V33.58zM161.345 37.116c-.21.27-.484.485-.797.624-.314.146-.655.22-1 .22-.315.003-.628-.05-.924-.158-.28-.099-.536-.253-.755-.452-.214-.2-.386-.44-.504-.709-.246-.59-.246-1.256 0-1.847.118-.269.29-.51.504-.71.22-.199.476-.353.755-.452.296-.107.609-.16.924-.159.284-.003.566.05.83.159.24.1.457.256.63.452.179.208.314.449.399.71.097.298.145.61.14.923v.414h-3.05c.041.234.162.446.34.602.183.152.414.232.65.225.193.006.383-.045.548-.146.152-.1.284-.226.39-.374l.92.678zm-1.113-1.883c.01-.213-.07-.42-.219-.572-.153-.159-.367-.245-.587-.237-.132-.003-.263.021-.386.07-.105.043-.201.104-.285.18-.078.072-.14.159-.185.255-.043.096-.068.2-.074.304h1.736zM166.816 37.855h-1.209v-.563h-.018c-.06.085-.13.164-.206.234-.09.083-.19.155-.298.215-.119.067-.245.12-.376.159-.139.041-.282.062-.426.061-.294.005-.587-.05-.859-.163-.25-.103-.476-.259-.662-.457-.187-.202-.332-.44-.425-.7-.102-.284-.153-.585-.15-.888 0-.291.045-.581.136-.858.085-.263.216-.509.386-.726.165-.21.373-.382.61-.506.252-.129.532-.194.815-.19.261-.001.52.042.767.128.233.083.436.235.582.436h.018v-2.832h1.314l.001 6.65zm-1.209-2.138c.013-.287-.086-.568-.276-.783-.44-.4-1.111-.4-1.552 0-.369.456-.369 1.11 0 1.566.441.4 1.111.4 1.552 0 .19-.215.289-.496.276-.783"/>
        <path fill="#2F5CBD" d="M50.093.692c.934 0 1.78.554 2.155 1.411l6.467 14.75c.127.29.414.477.73.476.315-.001.6-.19.725-.48l6.334-14.73c.373-.866 1.222-1.427 2.162-1.427h.007c1.3 0 2.354 1.058 2.354 2.363v24.21c0 .44-.355.796-.793.796h-2.548c-.438 0-.792-.356-.793-.796V10.997H66.8L61.301 23.66c-.126.29-.411.478-.727.478h-2.402c-.316 0-.602-.188-.728-.478l-5.499-12.663h-.074v16.268c0 .44-.355.796-.793.796H48.53c-.438 0-.793-.356-.793-.796V3.055c0-.627.248-1.228.69-1.67.441-.444 1.04-.693 1.664-.693M90.178 21.942h-9.213c-.34 0-.64.215-.75.537l-1.728 5.045c-.11.321-.411.537-.75.537h-2.679c-.258 0-.5-.127-.65-.34-.148-.212-.183-.484-.095-.728l8.964-24.745c.338-.934 1.222-1.555 2.213-1.555h.161c.99 0 1.875.621 2.213 1.555l8.963 24.746c.089.244.053.516-.096.728-.148.213-.39.34-.65.34h-2.66c-.338 0-.639-.215-.75-.536l-1.744-5.049c-.11-.32-.411-.535-.749-.535m-1.712-3.679c.255 0 .494-.122.643-.33.15-.207.19-.473.11-.716L85.617 6.306h-.075l-3.6 10.911c-.08.243-.04.51.109.716.15.208.388.33.643.33h5.772zM100.133 3.055c0-.627.248-1.228.69-1.67.44-.444 1.04-.693 1.664-.693h7.186c3.692.025 6.46 1.564 8.306 4.618.64.975 1.068 2.075 1.253 3.229.17 1.94.239 3.89.206 5.838 0 2.94-.106 4.993-.318 6.157-.087.541-.238 1.07-.45 1.576-.23.483-.485.953-.766 1.408-.833 1.322-1.977 2.418-3.332 3.191-1.409.902-3.136 1.352-5.18 1.352h-8.467c-.438 0-.793-.356-.793-.796V3.055zm4.133 20.287c0 .211.084.413.233.563.149.149.35.233.56.233h4.146c2.319 0 4.002-.795 5.05-2.384.487-.652.79-1.424.88-2.234.142-1.66.198-3.327.168-4.993 0-2.378-.056-4.08-.169-5.106-.103-.919-.474-1.787-1.066-2.496-1.147-1.59-2.769-2.36-4.863-2.31h-2.584c-1.3 0-2.355 1.059-2.355 2.363v16.364zM136.979 21.942h-9.214c-.339 0-.64.216-.75.537l-1.727 5.045c-.11.321-.411.537-.75.537h-2.679c-.258 0-.5-.127-.65-.34-.148-.212-.183-.484-.095-.728l8.964-24.745c.338-.934 1.222-1.555 2.212-1.555h.162c.99 0 1.875.621 2.213 1.555l8.963 24.746c.089.244.053.516-.095.728-.149.213-.391.34-.65.34h-2.661c-.338 0-.64-.215-.75-.536l-1.744-5.049c-.11-.32-.411-.535-.75-.535m-1.711-3.679c.254 0 .493-.122.643-.33.149-.207.19-.473.11-.716l-3.602-10.911h-.075l-3.602 10.91c-.08.243-.039.51.11.716.15.207.389.33.643.33l5.773.001zM146.933 3.055c0-.627.248-1.228.69-1.67.442-.444 1.04-.693 1.665-.693h8.289c2.27 0 4.12.6 5.555 1.802 1.733 1.364 2.638 3.311 2.712 5.84-.046 3.434-1.55 5.853-4.514 7.257-.195.092-.345.26-.414.466-.069.205-.05.43.05.622l5.32 10.219c.128.247.119.543-.025.78-.143.239-.4.384-.678.384h-3.113c-.304 0-.582-.174-.714-.45l-5.198-10.794c-.132-.275-.41-.45-.714-.45h-3.983c-.21 0-.413.084-.561.233-.15.15-.233.352-.233.563v10.102c0 .44-.355.796-.793.796h-2.547c-.438 0-.794-.356-.794-.796V3.055zm4.134 8.836c0 .44.355.796.794.796h5.454c1.546-.025 2.706-.475 3.48-1.351.759-.811 1.169-1.89 1.14-3.004-.025-1.427-.48-2.459-1.367-3.097-.698-.563-1.708-.845-3.03-.845h-4.116c-1.3 0-2.355 1.058-2.355 2.363v5.138z"/>
    </g>
</svg>
