<svg xmlns="http://www.w3.org/2000/svg" width="25" height="24" viewBox="0 0 25 24">
    <g fill="none" fill-rule="evenodd" transform="translate(.295)">
        <path d="M0 0H24V24H0z"/>
        <path d="M0 0H24V24H0z"/>
        <rect width="24" height="24" rx="12"/>
        <g>
            <path fill="#1A1D23" d="M7.808.049c2.42 1.654 5.85 2.724 7.808 2.639v.024c-.036 4.39-.207 7.261-1.265 9.499-1.046 2.238-2.967 3.843-6.482 5.753-.024.012-.037.024-.06.024C.704 14.157.06 11.505 0 2.688h.207c1.982 0 5.278-1.058 7.601-2.64zm0 1.496C5.801 2.736 3.296 3.636 1.265 3.88c.06 3.697.292 6.008 1.13 7.796.852 1.788 2.385 3.186 5.413 4.889l.118-.07.052-.027.344-.198c2.694-1.568 4.104-2.913 4.898-4.594.794-1.693 1.05-3.857 1.123-7.223l.008-.427V3.88c-.024 0-.048 0-.073-.012l-.003.013c-1.134-.153-2.412-.497-3.664-.98l-.468-.189h-.012c-.632-.267-1.253-.56-1.836-.888-.159-.085-.329-.182-.487-.28zm.183 3.502c.744 0 1.37.571 1.44 1.308l.007.14v1.447c.79.499 1.313 1.362 1.301 2.36 0 1.52-1.228 2.76-2.76 2.76-1.52 0-2.761-1.228-2.761-2.76 0-.931.455-1.756 1.159-2.258l.154-.102V6.495c0-.402.158-.754.426-1.022.267-.268.632-.426 1.034-.426zm.668 4.975c0-.438-.389-.779-.839-.681-.255.06-.474.267-.523.535-.06.316.085.596.329.742v.28l.012.461c0 .098.085.183.182.183h.316c.098 0 .183-.073.183-.183v-.741c.195-.122.34-.341.34-.596zm-.656-4.294c-.22 0-.426.086-.572.231-.122.122-.2.286-.224.464L7.2 6.53h-.012v1.107c.243-.073.51-.11.778-.11.22 0 .431.028.636.077l.203.057v-1.13c0-.439-.352-.804-.802-.804z" transform="translate(4 3)"/>
        </g>
    </g>
</svg>
